<mxfile host="app.diagrams.net" modified="2023-04-05T04:01:40.959Z" agent="Mozilla/5.0 (Windows NT 10.0; Win64; x64) AppleWebKit/537.36 (KHTML, like Gecko) Chrome/111.0.0.0 Safari/537.36 Edg/111.0.1661.54" etag="p5LN6wKlYhH2LSwsTaeA" version="21.1.1" type="github">
  <diagram name="第 1 页" id="ubcBWuANmGFOUOO9k5Sy">
    <mxGraphModel dx="1025" dy="787" grid="1" gridSize="10" guides="1" tooltips="1" connect="1" arrows="1" fold="1" page="1" pageScale="1" pageWidth="827" pageHeight="1169" math="0" shadow="0">
      <root>
        <mxCell id="0" />
        <mxCell id="1" parent="0" />
        <mxCell id="QUq3W0ir39bzS1jsgw1L-1" value="" style="rounded=0;whiteSpace=wrap;html=1;" vertex="1" parent="1">
          <mxGeometry x="60" y="80" width="480" height="200" as="geometry" />
        </mxCell>
        <mxCell id="QUq3W0ir39bzS1jsgw1L-2" value="Code" style="rounded=0;whiteSpace=wrap;html=1;" vertex="1" parent="1">
          <mxGeometry x="60" y="80" width="120" height="50" as="geometry" />
        </mxCell>
        <mxCell id="QUq3W0ir39bzS1jsgw1L-3" value="Identifier" style="rounded=0;whiteSpace=wrap;html=1;" vertex="1" parent="1">
          <mxGeometry x="180" y="80" width="120" height="50" as="geometry" />
        </mxCell>
        <mxCell id="QUq3W0ir39bzS1jsgw1L-4" value="Length" style="rounded=0;whiteSpace=wrap;html=1;" vertex="1" parent="1">
          <mxGeometry x="300" y="80" width="240" height="50" as="geometry" />
        </mxCell>
        <mxCell id="QUq3W0ir39bzS1jsgw1L-5" value="Authenticator" style="rounded=0;whiteSpace=wrap;html=1;" vertex="1" parent="1">
          <mxGeometry x="60" y="130" width="480" height="120" as="geometry" />
        </mxCell>
        <mxCell id="QUq3W0ir39bzS1jsgw1L-7" value="Attributes" style="rounded=0;whiteSpace=wrap;html=1;" vertex="1" parent="1">
          <mxGeometry x="60" y="230" width="480" height="50" as="geometry" />
        </mxCell>
        <mxCell id="QUq3W0ir39bzS1jsgw1L-12" value="0" style="rounded=0;whiteSpace=wrap;html=1;fillColor=default;strokeColor=none;" vertex="1" parent="1">
          <mxGeometry x="30" y="30" width="70" height="40" as="geometry" />
        </mxCell>
        <mxCell id="QUq3W0ir39bzS1jsgw1L-13" value="8" style="rounded=0;whiteSpace=wrap;html=1;strokeColor=none;" vertex="1" parent="1">
          <mxGeometry x="150" y="30" width="70" height="40" as="geometry" />
        </mxCell>
        <mxCell id="QUq3W0ir39bzS1jsgw1L-14" value="16" style="rounded=0;whiteSpace=wrap;html=1;strokeColor=none;" vertex="1" parent="1">
          <mxGeometry x="270" y="30" width="70" height="40" as="geometry" />
        </mxCell>
        <mxCell id="QUq3W0ir39bzS1jsgw1L-15" value="31" style="rounded=0;whiteSpace=wrap;html=1;strokeColor=none;" vertex="1" parent="1">
          <mxGeometry x="500" y="30" width="70" height="40" as="geometry" />
        </mxCell>
        <mxCell id="QUq3W0ir39bzS1jsgw1L-16" value="4" style="rounded=0;whiteSpace=wrap;html=1;fillColor=default;strokeColor=none;" vertex="1" parent="1">
          <mxGeometry x="570" y="80" width="70" height="40" as="geometry" />
        </mxCell>
        <mxCell id="QUq3W0ir39bzS1jsgw1L-19" value="20" style="rounded=0;whiteSpace=wrap;html=1;fillColor=default;strokeColor=none;" vertex="1" parent="1">
          <mxGeometry x="570" y="150" width="70" height="40" as="geometry" />
        </mxCell>
        <mxCell id="QUq3W0ir39bzS1jsgw1L-20" value="...." style="rounded=0;whiteSpace=wrap;html=1;fillColor=default;strokeColor=none;" vertex="1" parent="1">
          <mxGeometry x="570" y="235" width="70" height="40" as="geometry" />
        </mxCell>
      </root>
    </mxGraphModel>
  </diagram>
</mxfile>
